<?xml version="1.0" standalone="no"?>
<!DOCTYPE svg PUBLIC "-//W3C//DTD SVG 20010904//EN"
 "http://www.w3.org/TR/2001/REC-SVG-20010904/DTD/svg10.dtd">
<svg version="1.0" xmlns="http://www.w3.org/2000/svg"
 width="260.000000pt" height="260.000000pt" viewBox="0 0 260.000000 260.000000"
 preserveAspectRatio="xMidYMid meet">
<metadata>
Created by potrace 1.11, written by Peter Selinger 2001-2013
</metadata>
<g transform="translate(0.000000,260.000000) scale(0.100000,-0.100000)"
fill="#000000" stroke="none">
<path d="M1975 2561 c-3 -5 1 -12 7 -14 8 -3 6 -6 -4 -6 -10 -1 -17 -4 -16 -8
3 -11 -25 -62 -34 -62 -5 -1 -8 -4 -7 -8 0 -3 -6 -10 -15 -15 -9 -5 -14 -13
-11 -18 3 -4 -2 -10 -10 -14 -8 -3 -15 -13 -15 -21 0 -10 -5 -13 -12 -9 -6 4
-8 3 -4 -4 3 -6 -2 -18 -11 -28 -10 -10 -18 -22 -18 -28 -1 -6 -6 -10 -12 -9
-6 1 -17 -5 -25 -14 -9 -12 -9 -15 0 -9 6 4 12 2 12 -3 0 -6 -8 -11 -17 -11
-13 0 -15 -2 -5 -8 9 -6 6 -12 -13 -20 -22 -10 -27 -18 -24 -39 0 -3 -6 -10
-15 -15 -9 -5 -13 -15 -9 -21 4 -8 1 -7 -9 1 -14 11 -16 10 -14 -5 2 -9 -7
-27 -18 -40 -37 -40 -45 -51 -39 -57 6 -5 -11 -10 -28 -8 -3 1 -5 -10 -3 -24
1 -14 0 -23 -3 -20 -10 10 -35 -33 -27 -46 4 -6 3 -8 -3 -5 -6 4 -19 -1 -29
-9 -10 -9 -12 -13 -4 -9 8 4 4 -3 -9 -14 -13 -12 -21 -21 -18 -21 4 0 -5 -12
-18 -26 -14 -15 -25 -31 -25 -35 0 -5 -7 -9 -16 -9 -10 0 -14 -5 -10 -16 3 -8
2 -13 -2 -11 -4 3 -13 -1 -20 -9 -7 -8 -10 -14 -6 -14 4 0 -3 -9 -16 -20 -28
-24 -37 -26 -19 -4 12 15 11 16 -10 9 -20 -6 -23 -5 -17 10 4 13 2 16 -9 11
-8 -3 -14 0 -12 7 1 7 -4 11 -10 10 -7 -2 -13 2 -13 8 0 6 -13 24 -30 39 -16
15 -30 33 -30 39 0 6 -6 10 -12 8 -7 -1 -12 5 -10 15 2 12 -3 15 -19 11 -15
-4 -20 -2 -15 5 3 6 -2 15 -11 21 -10 6 -14 11 -8 11 5 0 -2 8 -15 17 -14 10
-29 17 -33 15 -5 -1 -6 2 -2 8 3 5 1 10 -4 10 -6 0 -11 7 -11 17 0 9 -3 14 -6
10 -11 -10 -47 31 -38 44 5 9 2 10 -10 6 -11 -5 -19 0 -24 13 -4 10 -11 20
-17 22 -5 2 -9 6 -8 10 2 4 -6 10 -17 13 -11 4 -18 11 -15 16 3 5 -2 6 -11 2
-11 -4 -15 -2 -11 4 4 6 0 14 -9 17 -8 3 -12 10 -9 16 3 6 -3 10 -15 10 -17 0
-21 4 -16 17 4 10 4 14 0 10 -4 -4 -13 1 -21 11 -8 9 -11 11 -7 3 5 -10 3 -12
-5 -7 -7 5 -10 14 -7 22 3 8 2 13 -2 13 -23 -4 -34 3 -28 17 3 8 2 12 -4 9 -6
-4 -17 1 -26 9 -8 9 -21 16 -28 16 -7 0 -22 9 -34 20 -12 12 -22 18 -22 14 0
-3 -8 2 -18 13 -9 10 -13 13 -9 7 6 -9 2 -11 -12 -7 -12 3 -19 8 -17 12 2 3
-7 6 -20 6 -13 0 -24 -4 -24 -8 0 -5 -5 -5 -12 -1 -6 4 -8 3 -4 -4 3 -6 1 -14
-5 -18 -8 -4 -7 -9 2 -15 8 -5 9 -9 4 -9 -14 0 -18 -47 -5 -55 6 -4 8 -11 5
-16 -3 -5 2 -6 11 -2 12 4 15 3 10 -5 -4 -7 -3 -12 2 -12 5 0 8 -11 7 -25 -2
-14 0 -24 3 -22 4 2 16 -5 26 -16 19 -20 19 -20 0 -14 -11 4 -5 -6 16 -24 19
-17 29 -28 23 -24 -7 3 -13 1 -13 -4 0 -6 6 -11 13 -11 17 0 39 -38 30 -53 -4
-7 0 -6 10 2 15 12 17 12 11 -4 -5 -13 -4 -16 4 -11 7 4 12 2 12 -5 0 -6 18
-29 40 -50 22 -22 37 -39 33 -39 -5 0 5 -11 21 -25 16 -14 33 -25 38 -25 4 0
7 -3 7 -7 -1 -5 -1 -17 0 -28 1 -15 3 -17 10 -6 6 9 11 10 15 2 4 -6 4 -11 -1
-11 -4 0 0 -5 10 -11 9 -6 15 -14 12 -20 -4 -5 3 -9 14 -9 11 0 22 -9 26 -20
3 -11 10 -20 15 -20 5 0 12 -9 15 -20 3 -11 13 -20 22 -20 9 0 13 -6 10 -14
-3 -8 1 -17 9 -20 10 -4 13 -2 8 7 -4 7 -3 9 2 4 5 -5 9 -12 10 -15 2 -20 18
-42 29 -42 7 0 16 -7 19 -16 3 -8 11 -12 17 -8 7 4 9 3 5 -4 -3 -6 -2 -13 4
-17 5 -3 10 -1 10 4 0 6 5 11 12 11 6 0 9 -3 5 -6 -3 -3 6 -17 20 -30 14 -13
22 -24 18 -24 -4 0 -1 -8 6 -17 8 -9 9 -14 3 -10 -7 4 -15 0 -18 -9 -4 -9 -13
-14 -21 -10 -8 3 -14 2 -14 -2 3 -21 -2 -32 -13 -26 -8 5 -9 2 -5 -10 4 -10 3
-15 -3 -11 -6 3 -10 1 -10 -5 0 -6 -4 -8 -10 -5 -6 4 -7 -1 -3 -11 4 -12 3
-15 -5 -10 -8 5 -12 0 -12 -13 0 -13 -7 -21 -17 -21 -15 0 -16 -2 -3 -10 11
-7 11 -10 2 -10 -7 0 -10 -5 -7 -10 4 -6 1 -9 -5 -8 -7 2 -14 -5 -15 -15 -6
-33 -15 -48 -24 -42 -13 8 -52 -26 -44 -38 4 -6 -1 -8 -11 -4 -9 4 -15 3 -11
-2 3 -5 -1 -12 -7 -14 -9 -4 -9 -6 2 -6 10 -1 8 -6 -8 -17 -23 -16 -54 -63
-33 -50 7 5 9 1 5 -8 -3 -9 -10 -13 -15 -10 -8 4 -10 0 -9 -21 1 -11 -55 -60
-65 -57 -5 2 -7 0 -3 -4 4 -4 -9 -23 -30 -42 -20 -20 -36 -40 -34 -45 1 -4 -2
-6 -7 -3 -5 4 -16 -3 -24 -14 -7 -11 -17 -17 -22 -12 -5 4 -5 2 -2 -4 4 -7 -2
-23 -14 -35 -11 -13 -17 -18 -13 -10 5 10 3 12 -5 7 -7 -5 -10 -14 -7 -22 3
-8 -1 -17 -9 -20 -8 -4 -15 -13 -15 -20 0 -8 -7 -17 -15 -20 -8 -4 -15 -13
-15 -21 0 -9 -5 -11 -12 -7 -8 5 -8 2 1 -10 12 -15 12 -17 0 -14 -8 2 -13 -2
-12 -9 2 -8 -4 -10 -14 -6 -11 4 -14 3 -9 -5 4 -7 1 -15 -8 -18 -9 -3 -14 -10
-11 -15 3 -4 -4 -13 -16 -20 -18 -9 -21 -9 -17 2 3 8 -3 22 -13 33 -17 18 -18
17 -12 -4 4 -16 0 -23 -16 -27 -11 -3 -18 -9 -15 -14 3 -5 -2 -9 -10 -9 -9 0
-13 -7 -11 -19 2 -12 -2 -18 -13 -17 -10 1 -16 -6 -16 -16 1 -10 -4 -18 -12
-18 -8 0 -14 -6 -14 -14 0 -8 -9 -17 -20 -21 -11 -3 -19 -12 -17 -18 1 -7 -6
-11 -15 -11 -10 1 -15 -3 -12 -8 3 -5 -9 -24 -28 -42 -19 -18 -32 -38 -30 -44
1 -5 -2 -14 -9 -18 -8 -5 -10 -3 -4 7 8 12 6 12 -8 0 -10 -8 -16 -16 -13 -18
2 -3 -9 -17 -25 -32 -28 -27 -40 -49 -20 -36 5 3 12 1 16 -5 9 -15 25 -12 25
6 0 9 5 12 12 8 7 -5 9 -2 5 9 -4 11 -2 14 9 10 8 -3 14 1 14 10 0 18 48 73
61 70 4 -2 6 3 4 10 -7 19 21 50 37 41 11 -6 11 -5 0 8 -11 14 -11 16 0 14 7
-1 19 -5 26 -10 11 -7 12 -4 3 13 -8 14 -8 21 -1 21 22 0 25 2 32 21 4 10 15
19 23 19 9 0 14 4 10 9 -3 5 2 16 10 24 8 9 15 20 15 26 0 6 6 11 13 11 9 0 8
3 -2 9 -8 5 -9 11 -3 15 6 3 13 2 17 -3 3 -6 13 -8 23 -5 16 5 16 5 0 -6 -10
-6 -18 -18 -18 -26 0 -8 -11 -24 -25 -36 -13 -11 -22 -25 -19 -29 3 -5 -1 -6
-9 -3 -8 3 -18 0 -23 -7 -5 -8 -3 -10 7 -5 8 5 8 2 -2 -6 -9 -7 -14 -20 -12
-28 3 -10 -1 -8 -11 4 -9 11 -16 15 -16 9 0 -7 7 -18 15 -26 8 -8 11 -18 7
-22 -4 -5 -1 -5 6 -1 7 5 11 10 8 14 -3 3 2 11 12 19 9 8 11 12 4 8 -6 -3 -12
-1 -12 4 0 6 12 11 26 11 17 0 23 4 18 12 -5 7 -2 9 9 5 12 -4 14 -2 10 10 -5
12 -2 15 9 10 10 -3 19 0 22 9 4 10 2 13 -7 8 -8 -5 -8 -2 2 9 7 9 18 14 24
10 5 -3 7 -1 3 5 -8 13 33 44 48 35 6 -4 4 2 -4 12 -9 11 -10 16 -2 11 7 -4
12 -2 12 4 0 6 4 9 9 5 5 -3 13 4 16 16 4 11 9 18 12 15 7 -7 32 17 26 26 -2
5 2 8 10 8 8 0 18 7 21 16 3 8 10 12 16 9 5 -3 10 -2 10 4 0 14 57 71 70 71 6
0 8 5 5 10 -3 6 1 13 9 16 9 3 14 9 13 13 -2 3 4 14 15 23 10 10 18 15 18 10
0 -4 11 6 25 22 14 16 25 33 25 38 0 5 4 7 9 3 6 -3 15 4 21 15 6 11 15 18 21
15 5 -4 13 5 19 19 5 14 12 26 15 26 4 0 3 -6 0 -12 -4 -7 2 -3 13 10 11 12
27 22 35 22 9 0 19 9 22 20 4 11 9 18 13 16 4 -2 13 2 20 10 7 8 9 14 5 14 -4
0 0 7 11 15 10 7 15 18 11 24 -4 7 0 8 11 4 13 -5 16 -3 11 10 -4 12 -2 14 10
10 11 -4 14 -2 9 5 -4 7 -2 12 3 12 6 0 11 7 11 16 0 8 5 12 10 9 6 -3 10 -2
10 3 0 5 9 19 20 32 11 12 17 27 14 32 -3 4 0 7 8 6 7 -2 12 2 11 9 -2 7 6 10
17 8 14 -3 17 1 13 12 -5 12 -3 14 7 8 10 -6 12 -4 6 11 -4 10 -4 15 0 11 4
-4 14 -1 23 6 14 12 22 8 61 -32 25 -25 39 -41 32 -37 -11 7 -11 4 0 -13 7
-12 18 -21 25 -21 6 0 15 -5 19 -12 5 -7 3 -8 -7 -3 -12 8 -12 6 0 -8 7 -9 17
-14 22 -11 5 3 6 -1 3 -9 -3 -8 2 -20 11 -27 8 -7 15 -18 15 -24 0 -6 11 -24
25 -40 14 -16 25 -33 25 -38 0 -4 6 -8 14 -8 10 0 13 -7 11 -20 -2 -11 0 -18
5 -15 5 3 14 -5 21 -17 7 -12 17 -28 23 -34 6 -6 17 -21 25 -32 8 -12 18 -19
23 -16 4 3 8 -2 8 -10 0 -8 18 -33 40 -55 36 -36 45 -51 41 -73 0 -5 6 -8 14
-8 8 0 14 -3 14 -7 -4 -23 2 -43 11 -38 9 6 14 -8 11 -27 0 -5 4 -8 11 -8 6 0
8 -3 5 -6 -4 -4 1 -14 11 -23 9 -9 18 -23 20 -31 2 -8 8 -17 13 -18 5 -2 7 -7
4 -12 -3 -5 4 -11 15 -15 11 -4 18 -11 15 -16 -4 -5 -1 -9 4 -9 6 0 11 -9 11
-21 0 -11 5 -17 10 -14 9 6 14 -8 11 -28 -1 -5 2 -6 7 -3 9 5 52 -37 52 -50 0
-4 10 -15 22 -25 11 -11 18 -19 14 -19 -4 0 -1 -6 6 -14 7 -8 16 -12 21 -9 4
2 7 0 7 -4 0 -12 87 -103 99 -103 5 0 13 -9 16 -20 3 -11 12 -20 18 -20 9 0 9
-2 0 -8 -8 -5 -7 -12 4 -27 13 -16 14 -16 10 -3 -6 16 -4 16 16 5 12 -6 25
-16 29 -22 5 -6 8 -6 8 2 0 6 9 10 20 8 13 -2 20 2 20 11 0 8 5 14 10 14 13 0
50 37 50 50 0 5 7 6 17 3 11 -4 14 -3 9 5 -6 10 4 16 25 14 10 -1 -2 93 -13
103 -8 7 -9 6 -3 -4 6 -10 4 -12 -4 -7 -7 5 -10 15 -7 23 3 8 2 12 -3 9 -13
-8 -44 31 -35 45 4 7 3 10 -4 5 -6 -3 -16 7 -23 23 -7 16 -17 27 -21 25 -4 -3
-8 0 -8 7 0 6 -8 18 -17 26 -12 10 -13 12 -3 8 9 -4 8 -1 -3 8 -10 9 -18 18
-18 21 3 20 0 26 -9 21 -6 -3 -10 4 -10 17 0 18 -2 20 -10 8 -8 -13 -10 -12
-10 3 0 17 -6 27 -38 62 -7 8 -10 15 -6 15 4 0 -7 13 -24 29 -16 16 -28 32
-24 35 3 3 -2 6 -11 6 -10 0 -16 3 -16 8 3 17 -1 32 -8 30 -5 -2 -9 1 -10 5
-1 4 -16 21 -33 37 -16 15 -30 32 -30 38 0 5 -7 13 -16 16 -8 3 -12 10 -9 16
3 5 -2 10 -12 10 -15 0 -16 2 -3 10 13 8 12 10 -2 10 -10 0 -18 5 -18 11 0 5
-4 7 -10 4 -5 -3 -10 4 -10 15 0 15 -5 20 -14 17 -10 -4 -13 -1 -9 10 3 8 2
18 -3 22 -13 9 -37 54 -26 47 6 -3 5 5 -1 18 -7 13 -15 22 -19 20 -4 -3 -5 3
-1 12 4 10 2 15 -4 11 -5 -3 -9 3 -8 16 1 12 -3 28 -8 36 -14 17 -18 43 -6 36
5 -4 6 1 3 9 -3 9 -11 16 -18 16 -6 0 -4 5 4 10 12 8 12 10 1 10 -8 0 -11 7
-8 19 2 10 1 25 -4 32 -5 8 -3 17 4 21 9 6 8 8 -2 8 -11 0 -11 3 -1 15 11 13
10 14 -2 10 -11 -4 -14 2 -13 27 1 18 -1 38 -4 43 -12 22 -9 33 7 27 15 -5 15
-4 3 11 -8 11 -11 28 -7 48 3 18 2 28 -4 24 -17 -10 -11 7 8 22 9 8 11 12 5 8
-14 -7 -18 7 -6 19 15 15 11 38 -5 32 -9 -4 -6 3 8 13 23 18 23 20 7 27 -13 4
-15 9 -7 14 10 6 16 37 19 93 1 9 9 17 19 17 14 0 15 2 2 10 -13 9 -13 10 0
10 13 0 13 1 0 10 -12 8 -12 10 -1 10 8 0 11 7 8 20 -3 11 -2 18 3 15 4 -3 14
3 21 12 10 12 10 14 2 9 -18 -10 -16 2 2 21 8 8 13 19 10 24 -4 5 -2 9 3 9 6
0 15 14 21 31 7 19 15 28 22 23 7 -4 9 -3 5 4 -3 5 0 13 6 15 10 4 10 6 0 6
-10 1 -10 4 2 16 8 8 19 15 25 15 5 0 8 10 6 21 -3 12 -2 19 1 16 8 -8 44 25
44 40 0 7 5 12 12 10 6 -1 18 10 25 25 7 15 22 30 33 33 11 3 28 17 39 31 11
14 22 25 25 25 16 -2 16 0 1 15 -9 9 -14 23 -11 30 3 8 0 11 -10 7 -7 -3 -14
0 -14 7 0 6 -5 8 -11 4 -6 -3 -10 1 -9 12 1 11 1 22 0 27 -1 4 -3 12 -4 19 -1
11 -23 19 -63 22 -11 0 -20 3 -19 6 3 7 -48 55 -62 57 -6 2 -14 -1 -17 -6z
m-351 -779 c3 -5 -1 -9 -9 -9 -8 0 -12 4 -9 9 3 4 7 8 9 8 2 0 6 -4 9 -8z m0
-61 c3 8 5 -2 4 -21 -1 -19 -6 -41 -11 -47 -13 -17 0 -46 15 -37 7 4 4 -2 -6
-14 -12 -14 -14 -22 -7 -22 7 0 9 -5 6 -10 -4 -6 -2 -17 4 -24 8 -10 8 -16 -1
-24 -9 -7 -20 -5 -37 9 -13 10 -19 19 -15 19 5 0 0 7 -11 16 -11 8 -20 20 -20
27 -1 7 -7 11 -15 9 -11 -3 -11 0 1 14 9 12 9 15 2 10 -8 -4 -13 -1 -13 8 0
10 6 13 17 9 11 -4 14 -3 9 5 -4 7 -1 12 7 12 8 0 18 11 21 25 4 14 11 23 16
20 6 -3 10 2 10 12 0 14 2 15 9 4 7 -11 10 -11 15 0z m-1289 -1220 c-9 -8 -36
-10 -30 -2 2 4 11 8 20 8 8 0 13 -3 10 -6z"/>
<path d="M1610 1529 c0 -5 5 -7 10 -4 6 3 10 8 10 11 0 2 -4 4 -10 4 -5 0 -10
-5 -10 -11z"/>
<path d="M1756 927 c3 -10 9 -15 12 -12 3 3 0 11 -7 18 -10 9 -11 8 -5 -6z"/>
<path d="M506 662 l-19 -27 24 22 c12 12 21 24 18 27 -2 2 -13 -8 -23 -22z"/>
<path d="M202 371 c-11 -6 -10 -10 4 -15 20 -8 32 0 18 14 -5 5 -15 5 -22 1z"/>
<path d="M295 340 c-3 -5 -1 -10 4 -10 6 0 11 5 11 10 0 6 -2 10 -4 10 -3 0
-8 -4 -11 -10z"/>
<path d="M157 333 c-4 -6 0 -13 8 -17 8 -3 17 0 21 6 4 6 3 8 -4 4 -5 -3 -12
-1 -14 6 -3 8 -6 9 -11 1z"/>
<path d="M260 310 c-6 -11 -8 -20 -6 -20 3 0 10 9 16 20 6 11 8 20 6 20 -3 0
-10 -9 -16 -20z"/>
<path d="M139 305 c-1 -3 -2 -11 -3 -17 -1 -7 -9 -12 -19 -12 -9 1 -15 -1 -13
-5 2 -3 -2 -19 -10 -36 -8 -16 -12 -22 -9 -12 3 10 1 15 -5 12 -6 -3 -10 -13
-10 -21 0 -8 -4 -14 -10 -14 -5 0 -10 -7 -10 -16 0 -8 -4 -12 -10 -9 -6 3 -7
-1 -4 -9 4 -10 1 -16 -9 -16 -15 0 -32 -29 -22 -38 3 -3 5 0 5 7 0 7 5 9 12 5
7 -5 8 -3 3 6 -6 10 -4 12 9 7 10 -4 15 -3 11 3 -3 6 2 10 11 10 10 0 15 3 12
6 -8 7 28 44 43 44 5 0 7 5 3 11 -3 6 -2 14 4 18 6 3 12 13 14 21 2 8 12 20
23 27 18 11 18 12 2 13 -10 0 -15 5 -12 10 3 6 4 10 1 10 -3 0 -7 -2 -7 -5z"/>
<path d="M231 285 c0 -5 3 -16 8 -23 7 -11 9 -10 14 3 4 9 3 14 -2 10 -5 -3
-12 1 -14 7 -3 7 -6 9 -6 3z"/>
<path d="M215 251 c-3 -5 -2 -12 3 -15 5 -3 9 1 9 9 0 17 -3 19 -12 6z"/>
<path d="M123 164 c3 -4 -3 -14 -15 -24 -15 -12 -18 -19 -9 -24 6 -4 11 -4 10
1 -3 20 2 25 16 13 13 -11 14 -10 9 5 -6 14 -4 16 7 10 12 -8 12 -6 0 8 -7 9
-16 17 -19 17 -3 0 -3 -3 1 -6z"/>
</g>
</svg>
